<?xml version="1.0" encoding="UTF-8" standalone="no"?>
<svg width="46px" height="48px" viewBox="0 0 46 48" version="1.1" xmlns="http://www.w3.org/2000/svg" xmlns:xlink="http://www.w3.org/1999/xlink">
    <!-- Generator: Sketch 50.2 (55047) - http://www.bohemiancoding.com/sketch -->
    <title>calendar copy</title>
    <desc>Created with Sketch.</desc>
    <defs></defs>
    <g id="Page-1" stroke="none" stroke-width="1" fill="none" fill-rule="evenodd">
        <g id="calendar-copy">
            <path d="M10,0 C8.90625,0 8,0.90625 8,2 L8,4 L2,4 C1.476563,4 0.945313,4.191406 0.570313,4.570313 C0.191406,4.945313 0,5.476563 0,6 L0,46 C0,46.523438 0.191406,47.054688 0.570313,47.433594 C0.945313,47.808594 1.476563,48 2,48 L44,48 C44.523438,48 45.054688,47.808594 45.433594,47.433594 C45.808594,47.054688 46,46.523438 46,46 L46,6 C46,5.476563 45.808594,4.945313 45.433594,4.570313 C45.054688,4.191406 44.523438,4 44,4 L38,4 L38,2 C38,0.90625 37.09375,0 36,0 L34,0 C32.90625,0 32,0.90625 32,2 L32,4 L14,4 L14,2 C14,0.90625 13.09375,0 12,0 L10,0 Z M10,2 L12,2 L12,8 L10,8 L10,2 Z M34,2 L36,2 L36,8 L34,8 L34,2 Z M2,6 L8,6 L8,8 C8,9.09375 8.90625,10 10,10 L12,10 C13.09375,10 14,9.09375 14,8 L14,6 L32,6 L32,8 C32,9.09375 32.90625,10 34,10 L36,10 C37.09375,10 38,9.09375 38,8 L38,6 L44,6 L44,13 L2,13 L2,6 Z M2,15 L44,15 L44,46 L2,46 L2,15 Z M8,19 L8,42 L38,42 L38,19 L8,19 Z M10,21 L15,21 L15,26 L10,26 L10,21 Z M17,21 L22,21 L22,26 L17,26 L17,21 Z M24,21 L29,21 L29,26 L24,26 L24,21 Z M31,21 L36,21 L36,26 L31,26 L31,21 Z M10,28 L15,28 L15,33 L10,33 L10,28 Z M17,28 L22,28 L22,33 L17,33 L17,28 Z M24,28 L29,28 L29,33 L24,33 L24,28 Z M31,28 L36,28 L36,33 L31,33 L31,28 Z M10,35 L15,35 L15,40 L10,40 L10,35 Z M17,35 L22,35 L22,40 L17,40 L17,35 Z M24,35 L29,35 L29,40 L24,40 L24,35 Z M31,35 L36,35 L36,40 L31,40 L31,35 Z" id="Shape" fill="#CC1C01" fill-rule="nonzero"></path>
            <path d="M17.5,28.5 L21.5,32.5" id="Line" stroke="#CC1C01" stroke-linecap="square"></path>
            <path d="M17.5,32.5 L21.5,28.5" id="Line" stroke="#CC1C01" stroke-linecap="square"></path>
            <path d="M24.5,35.5 L28.5,39.5" id="Line" stroke="#CC1C01" stroke-linecap="square"></path>
            <path d="M24.5,39.5 L28.5,35.5" id="Line" stroke="#CC1C01" stroke-linecap="square"></path>
        </g>
    </g>
</svg>